<svg xmlns="http://www.w3.org/2000/svg" role="graphics-symbol img" focusable="false" aria-hidden="true" width="24" height="24" viewBox="0 0 32 32" fill="none"><path fill-rule="evenodd" clip-rule="evenodd" d="M21 5.08807C25.1311 6.98409 28 11.157 28 16C28 20.843 25.1311 25.0159 21 26.9119V5.08807Z" fill="#ED2939"/><path fill-rule="evenodd" clip-rule="evenodd" d="M11 26.9119V5.08808C12.5221 4.38949 14.2156 4 16 4C17.7844 4 19.4779 4.38949 21 5.08808V26.9119C19.4779 27.6105 17.7844 28 16 28C14.2156 28 12.5221 27.6105 11 26.9119Z" fill="white"/><path fill-rule="evenodd" clip-rule="evenodd" d="M11 5.08807V26.9119C6.86894 25.0159 4 20.843 4 16C4 11.157 6.86894 6.98409 11 5.08807Z" fill="#002395"/><path d="M16 29C8.8203 29 3 23.1797 3 16C3 8.8203 8.8203 3 16 3C23.1797 3 29 8.8203 29 16C29 23.1797 23.1797 29 16 29Z" stroke="#d7d4cf" stroke-width="2"/></svg>