<svg xmlns="http://www.w3.org/2000/svg" role="graphics-symbol img" focusable="false" aria-hidden="true" width="24" height="24" viewBox="0 0 32 32" fill="none"><path fill-rule="evenodd" clip-rule="evenodd" d="M26.9119 21C25.0159 25.1311 20.843 28 16 28C11.157 28 6.9841 25.1311 5.08809 21H26.9119Z" fill="#FFCE00"/><path fill-rule="evenodd" clip-rule="evenodd" d="M26.9119 21C27.6105 19.4779 28 17.7844 28 16C28 14.2156 27.6105 12.5221 26.9119 11H5.08808C4.38949 12.5221 4 14.2156 4 16C4 17.7844 4.38949 19.4779 5.08808 21H26.9119Z" fill="#DD0000"/><path fill-rule="evenodd" clip-rule="evenodd" d="M5.08809 11C6.9841 6.86894 11.157 4 16 4C20.843 4 25.0159 6.86894 26.9119 11H5.08809Z" fill="black"/><path d="M16 29C8.8203 29 3 23.1797 3 16C3 8.8203 8.8203 3 16 3C23.1797 3 29 8.8203 29 16C29 23.1797 23.1797 29 16 29Z" stroke="#d7d4cf" stroke-width="2"/></svg>