<svg xmlns="http://www.w3.org/2000/svg" role="graphics-symbol img" focusable="false" aria-hidden="true" width="24" height="24" viewBox="0 0 32 32" fill="none"><path fill-rule="evenodd" clip-rule="evenodd" d="M11 26.9119C6.86894 25.0159 4 20.843 4 16C4 11.157 6.86894 6.98409 11 5.08807V26.9119Z" fill="#006847"/><path fill-rule="evenodd" clip-rule="evenodd" d="M11 26.9119V5.08808C12.5221 4.38949 14.2156 4 16 4C17.7844 4 19.4779 4.38949 21 5.08808V26.9119C19.4779 27.6105 17.7844 28 16 28C14.2156 28 12.5221 27.6105 11 26.9119Z" fill="white"/><path fill-rule="evenodd" clip-rule="evenodd" d="M21 26.9119V5.08807C25.1311 6.98409 28 11.157 28 16C28 20.843 25.1311 25.0159 21 26.9119Z" fill="#CE1126"/><path d="M12 16.2C12 17.6423 12.7704 18.9512 13.9948 19.6617C14.377 19.8834 14.8665 19.7534 15.0883 19.3712C15.31 18.9891 15.18 18.4995 14.7978 18.2778C14.0619 17.8508 13.6 17.066 13.6 16.2C13.6 15.7581 13.2418 15.4 12.8 15.4C12.3582 15.4 12 15.7581 12 16.2ZM18.1529 19.5717C19.2941 18.8418 20 17.5807 20 16.2C20 15.7581 19.6418 15.4 19.2 15.4C18.7582 15.4 18.4 15.7581 18.4 16.2C18.4 17.0292 17.977 17.7849 17.2908 18.2238C16.9186 18.4618 16.8098 18.9565 17.0479 19.3288C17.2859 19.701 17.7806 19.8097 18.1529 19.5717Z" fill="#006847"/><path d="M16 17.8C16.8837 17.8 17.6 16.7255 17.6 15.4C17.6 14.0745 16.8837 13 16 13C15.1164 13 14.4 14.0745 14.4 15.4C14.4 16.7255 15.1164 17.8 16 17.8Z" fill="#9B7745"/><path d="M16 29C8.8203 29 3 23.1797 3 16C3 8.8203 8.8203 3 16 3C23.1797 3 29 8.8203 29 16C29 23.1797 23.1797 29 16 29Z" stroke="#d7d4cf" stroke-width="2"/></svg>